<?xml version="1.0" encoding="us-ascii" standalone="no"?><svg xmlns="http://www.w3.org/2000/svg" xmlns:xlink="http://www.w3.org/1999/xlink" contentStyleType="text/css" height="1195px" preserveAspectRatio="none" style="width:750px;height:1195px;background:#FFFFFF;" version="1.1" viewBox="0 0 750 1195" width="750px" zoomAndPan="magnify"><defs/><g><!--cluster High-Level Control--><g id="cluster_High-Level Control"><rect fill="none" height="766.2" rx="2.5" ry="2.5" style="stroke:#000000;stroke-width:1.5;" width="398" x="26" y="7"/><text fill="#000000" font-family="sans-serif" font-size="14" font-weight="bold" lengthAdjust="spacing" textLength="129" x="160.5" y="22.0059">High-Level Control</text></g><!--cluster Logic & Math--><g id="cluster_Logic &amp; Math"><rect fill="none" height="363.7" rx="2.5" ry="2.5" style="stroke:#000000;stroke-width:1.5;" width="477" x="7" y="825.3"/><text fill="#000000" font-family="sans-serif" font-size="14" font-weight="bold" lengthAdjust="spacing" textLength="91" x="200" y="840.3059">Logic &amp; Math</text></g><!--cluster Hardware Abstraction--><g id="cluster_Hardware Abstraction"><rect fill="none" height="383.4" rx="2.5" ry="2.5" style="stroke:#000000;stroke-width:1.5;" width="236" x="508" y="797.2"/><text fill="#000000" font-family="sans-serif" font-size="14" font-weight="bold" lengthAdjust="spacing" textLength="148" x="552" y="812.2059">Hardware Abstraction</text></g><!--class RobotKinematicsController--><g id="elem_RobotKinematicsController"><rect codeLine="9" fill="#F1F1F1" height="715.1971" id="RobotKinematicsController" rx="2.5" ry="2.5" style="stroke:#181818;stroke-width:0.5;" width="367" x="41.5" y="42"/><ellipse cx="136.25" cy="58" fill="#ADD1B2" rx="11" ry="11" style="stroke:#181818;stroke-width:1.0;"/><path d="M131.25,59.1563 C131.25,61.6563 133.3906,63.4688 136.3125,63.4688 C137.5469,63.4688 138.7188,63.1719 139.4688,62.6563 C140.0781,62.2344 140.4063,61.8125 140.4063,61.4063 C140.4063,60.9375 139.9844,60.5313 139.4844,60.5313 C139.25,60.5313 139.0313,60.6094 138.8281,60.8125 C138.3906,61.25 138.3906,61.25 138.2188,61.3438 C137.7656,61.5781 137.125,61.7188 136.3594,61.7188 C134.3594,61.7188 133.0781,60.7031 133.0781,59.125 L133.0781,58.0781 C133.0781,56.375 134.2969,55.1719 136,55.1719 C136.5781,55.1719 137.1563,55.3125 137.625,55.5625 C138.0938,55.8281 138.2656,56.0156 138.3281,56.375 C138.4531,57.0469 138.7031,57.2969 139.2344,57.2969 C139.5156,57.2969 139.7969,57.1563 139.9844,56.9375 C140.1094,56.7656 140.1563,56.5938 140.1563,56.1563 L140.1563,54.7969 C140.1563,54.375 140.1406,54.2344 140.0156,54.0625 C139.8438,53.8125 139.5625,53.6563 139.2344,53.6563 C138.9219,53.6563 138.7188,53.7656 138.5,54.0313 C137.3281,53.5313 136.8906,53.4219 135.9375,53.4219 C133.2656,53.4219 131.25,55.4375 131.25,58.0625 L131.25,59.1563 Z " fill="#000000"/><text fill="#000000" font-family="sans-serif" font-size="14" lengthAdjust="spacing" textLength="169" x="156.75" y="62.606">RobotKinematicsController</text><line style="stroke:#181818;stroke-width:0.5;" x1="42.5" x2="407.5" y1="74" y2="74"/><text fill="#000000" font-family="sans-serif" font-size="14" lengthAdjust="spacing" textLength="84" x="47.5" y="91.0059">-robot: Robot</text><text fill="#000000" font-family="sans-serif" font-size="14" lengthAdjust="spacing" textLength="138" x="47.5" y="107.8059">-kin: RobotKinematics</text><text fill="#000000" font-family="sans-serif" font-size="14" lengthAdjust="spacing" textLength="125" x="47.5" y="124.6058">-vision: RobotVision</text><text fill="#000000" font-family="sans-serif" font-size="14" lengthAdjust="spacing" textLength="159" x="47.5" y="141.4057">-current_joint_angles: list</text><text fill="#000000" font-family="sans-serif" font-size="14" lengthAdjust="spacing" textLength="179" x="47.5" y="158.2057">-robot_base_in_world: array</text><text fill="#000000" font-family="sans-serif" font-size="14" lengthAdjust="spacing" textLength="146" x="47.5" y="175.0056">-calibration_points: dict</text><text fill="#000000" font-family="sans-serif" font-size="14" lengthAdjust="spacing" textLength="103" x="47.5" y="191.8055">-workspace: dict</text><text fill="#000000" font-family="sans-serif" font-size="14" lengthAdjust="spacing" textLength="74" x="47.5" y="208.6054">-mock: bool</text><text fill="#000000" font-family="sans-serif" font-size="14" lengthAdjust="spacing" textLength="4" x="47.5" y="225.4054">&#160;</text><text fill="#000000" font-family="sans-serif" font-size="14" lengthAdjust="spacing" textLength="202" x="47.5" y="242.2053">+__init__(robot, verbose, mock)</text><text fill="#000000" font-family="sans-serif" font-size="14" lengthAdjust="spacing" textLength="4" x="47.5" y="259.0052">&#160;</text><text fill="#000000" font-family="sans-serif" font-size="14" lengthAdjust="spacing" textLength="68" x="47.5" y="296.6051">+initialize()</text><text fill="#000000" font-family="sans-serif" font-size="14" lengthAdjust="spacing" textLength="51" x="47.5" y="313.405">+close()</text><text fill="#000000" font-family="sans-serif" font-size="14" lengthAdjust="spacing" textLength="4" x="47.5" y="330.2049">&#160;</text><line style="stroke:#181818;stroke-width:0.5;" x1="42.5" x2="188" y1="275.1992" y2="275.1992"/><text fill="#000000" font-family="sans-serif" font-size="14" lengthAdjust="spacing" textLength="74" x="188" y="279.3051">Initialization</text><line style="stroke:#181818;stroke-width:0.5;" x1="262" x2="407.5" y1="275.1992" y2="275.1992"/><text fill="#000000" font-family="sans-serif" font-size="14" lengthAdjust="spacing" textLength="211" x="47.5" y="367.8048">+set_robot_base_position(x, y, z)</text><text fill="#000000" font-family="sans-serif" font-size="14" lengthAdjust="spacing" textLength="213" x="47.5" y="384.6047">+transform_world_to_robot(point)</text><text fill="#000000" font-family="sans-serif" font-size="14" lengthAdjust="spacing" textLength="213" x="47.5" y="401.4046">+transform_robot_to_world(point)</text><text fill="#000000" font-family="sans-serif" font-size="14" lengthAdjust="spacing" textLength="148" x="47.5" y="418.2046">+calibrate_workspace()</text><text fill="#000000" font-family="sans-serif" font-size="14" lengthAdjust="spacing" textLength="172" x="47.5" y="435.0045">+load_calibration(filename)</text><text fill="#000000" font-family="sans-serif" font-size="14" lengthAdjust="spacing" textLength="4" x="47.5" y="451.8044">&#160;</text><line style="stroke:#181818;stroke-width:0.5;" x1="42.5" x2="144" y1="346.3989" y2="346.3989"/><text fill="#000000" font-family="sans-serif" font-size="14" lengthAdjust="spacing" textLength="162" x="144" y="350.5048">Calibration &amp; Coordinates</text><line style="stroke:#181818;stroke-width:0.5;" x1="306" x2="407.5" y1="346.3989" y2="346.3989"/><text fill="#000000" font-family="sans-serif" font-size="14" lengthAdjust="spacing" textLength="170" x="47.5" y="489.4043">+move_joints(joint_angles)</text><text fill="#000000" font-family="sans-serif" font-size="14" lengthAdjust="spacing" textLength="117" x="47.5" y="506.2042">+move_to_home()</text><text fill="#000000" font-family="sans-serif" font-size="14" lengthAdjust="spacing" textLength="236" x="47.5" y="523.0041">+move_to_position(x, y, z, elbow_up)</text><text fill="#000000" font-family="sans-serif" font-size="14" lengthAdjust="spacing" textLength="278" x="47.5" y="539.804">+move_to_world_position(x, y, z, elbow_up)</text><text fill="#000000" font-family="sans-serif" font-size="14" lengthAdjust="spacing" textLength="355" x="47.5" y="556.604">+move_to_position_smooth(x, y, z, duration, use_world)</text><text fill="#000000" font-family="sans-serif" font-size="14" lengthAdjust="spacing" textLength="287" x="47.5" y="573.4039">+execute_trajectory(q_start, q_end, duration)</text><text fill="#000000" font-family="sans-serif" font-size="14" lengthAdjust="spacing" textLength="285" x="47.5" y="590.2038">+execute_waypoint_sequence(waypoints, ...)</text><text fill="#000000" font-family="sans-serif" font-size="14" lengthAdjust="spacing" textLength="4" x="47.5" y="607.0037">&#160;</text><line style="stroke:#181818;stroke-width:0.5;" x1="42.5" x2="172.5" y1="467.9984" y2="467.9984"/><text fill="#000000" font-family="sans-serif" font-size="14" lengthAdjust="spacing" textLength="105" x="172.5" y="472.1043">Movement Logic</text><line style="stroke:#181818;stroke-width:0.5;" x1="277.5" x2="407.5" y1="467.9984" y2="467.9984"/><text fill="#000000" font-family="sans-serif" font-size="14" lengthAdjust="spacing" textLength="210" x="47.5" y="644.6036">+press_key_at_pixel(u, v, height)</text><text fill="#000000" font-family="sans-serif" font-size="14" lengthAdjust="spacing" textLength="180" x="47.5" y="661.4035">+move_to_pixel(u, v, height)</text><text fill="#000000" font-family="sans-serif" font-size="14" lengthAdjust="spacing" textLength="4" x="47.5" y="678.2035">&#160;</text><line style="stroke:#181818;stroke-width:0.5;" x1="42.5" x2="185" y1="623.1977" y2="623.1977"/><text fill="#000000" font-family="sans-serif" font-size="14" lengthAdjust="spacing" textLength="80" x="185" y="627.3037">Vision Tasks</text><line style="stroke:#181818;stroke-width:0.5;" x1="265" x2="407.5" y1="623.1977" y2="623.1977"/><text fill="#000000" font-family="sans-serif" font-size="14" lengthAdjust="spacing" textLength="154" x="47.5" y="715.8033">+update_current_state()</text><text fill="#000000" font-family="sans-serif" font-size="14" lengthAdjust="spacing" textLength="165" x="47.5" y="732.6032">+get_end_effector_pose()</text><text fill="#000000" font-family="sans-serif" font-size="14" lengthAdjust="spacing" textLength="207" x="47.5" y="749.4032">+get_end_effector_world_pose()</text><line style="stroke:#181818;stroke-width:0.5;" x1="42.5" x2="193.5" y1="694.3974" y2="694.3974"/><text fill="#000000" font-family="sans-serif" font-size="14" lengthAdjust="spacing" textLength="63" x="193.5" y="698.5034">Feedback</text><line style="stroke:#181818;stroke-width:0.5;" x1="256.5" x2="407.5" y1="694.3974" y2="694.3974"/></g><!--class RobotKinematics--><g id="elem_RobotKinematics"><rect codeLine="56" fill="#F1F1F1" height="131.9996" id="RobotKinematics" rx="2.5" ry="2.5" style="stroke:#181818;stroke-width:0.5;" width="298" x="23" y="1041"/><ellipse cx="114.25" cy="1057" fill="#ADD1B2" rx="11" ry="11" style="stroke:#181818;stroke-width:1.0;"/><path d="M109.25,1058.1563 C109.25,1060.6563 111.3906,1062.4688 114.3125,1062.4688 C115.5469,1062.4688 116.7188,1062.1719 117.4688,1061.6563 C118.0781,1061.2344 118.4063,1060.8125 118.4063,1060.4063 C118.4063,1059.9375 117.9844,1059.5313 117.4844,1059.5313 C117.25,1059.5313 117.0313,1059.6094 116.8281,1059.8125 C116.3906,1060.25 116.3906,1060.25 116.2188,1060.3438 C115.7656,1060.5781 115.125,1060.7188 114.3594,1060.7188 C112.3594,1060.7188 111.0781,1059.7031 111.0781,1058.125 L111.0781,1057.0781 C111.0781,1055.375 112.2969,1054.1719 114,1054.1719 C114.5781,1054.1719 115.1563,1054.3125 115.625,1054.5625 C116.0938,1054.8281 116.2656,1055.0156 116.3281,1055.375 C116.4531,1056.0469 116.7031,1056.2969 117.2344,1056.2969 C117.5156,1056.2969 117.7969,1056.1563 117.9844,1055.9375 C118.1094,1055.7656 118.1563,1055.5938 118.1563,1055.1563 L118.1563,1053.7969 C118.1563,1053.375 118.1406,1053.2344 118.0156,1053.0625 C117.8438,1052.8125 117.5625,1052.6563 117.2344,1052.6563 C116.9219,1052.6563 116.7188,1052.7656 116.5,1053.0313 C115.3281,1052.5313 114.8906,1052.4219 113.9375,1052.4219 C111.2656,1052.4219 109.25,1054.4375 109.25,1057.0625 L109.25,1058.1563 Z " fill="#000000"/><text fill="#000000" font-family="sans-serif" font-size="14" lengthAdjust="spacing" textLength="107" x="134.75" y="1061.606">RobotKinematics</text><line style="stroke:#181818;stroke-width:0.5;" x1="24" x2="320" y1="1073" y2="1073"/><line style="stroke:#181818;stroke-width:0.5;" x1="24" x2="320" y1="1081" y2="1081"/><text fill="#000000" font-family="sans-serif" font-size="14" lengthAdjust="spacing" textLength="149" x="29" y="1098.0059">+forward_kinematics(q)</text><text fill="#000000" font-family="sans-serif" font-size="14" lengthAdjust="spacing" textLength="207" x="29" y="1114.8059">+inverse_kinematics(target_pos)</text><text fill="#000000" font-family="sans-serif" font-size="14" lengthAdjust="spacing" textLength="142" x="29" y="1131.6058">+compute_jacobian(q)</text><text fill="#000000" font-family="sans-serif" font-size="14" lengthAdjust="spacing" textLength="218" x="29" y="1148.4057">+compute_static_torques(q, force)</text><text fill="#000000" font-family="sans-serif" font-size="14" lengthAdjust="spacing" textLength="286" x="29" y="1165.2057">+generate_quintic_trajectory(start, end, time)</text></g><!--class RobotVision--><g id="elem_RobotVision"><rect codeLine="65" fill="#F1F1F1" height="64.7999" id="RobotVision" rx="2.5" ry="2.5" style="stroke:#181818;stroke-width:0.5;" width="257" x="22.5" y="874.2"/><ellipse cx="108.75" cy="890.2" fill="#ADD1B2" rx="11" ry="11" style="stroke:#181818;stroke-width:1.0;"/><path d="M103.75,891.3563 C103.75,893.8563 105.8906,895.6688 108.8125,895.6688 C110.0469,895.6688 111.2188,895.3719 111.9688,894.8563 C112.5781,894.4344 112.9063,894.0125 112.9063,893.6063 C112.9063,893.1375 112.4844,892.7313 111.9844,892.7313 C111.75,892.7313 111.5313,892.8094 111.3281,893.0125 C110.8906,893.45 110.8906,893.45 110.7188,893.5438 C110.2656,893.7781 109.625,893.9188 108.8594,893.9188 C106.8594,893.9188 105.5781,892.9031 105.5781,891.325 L105.5781,890.2781 C105.5781,888.575 106.7969,887.3719 108.5,887.3719 C109.0781,887.3719 109.6563,887.5125 110.125,887.7625 C110.5938,888.0281 110.7656,888.2156 110.8281,888.575 C110.9531,889.2469 111.2031,889.4969 111.7344,889.4969 C112.0156,889.4969 112.2969,889.3563 112.4844,889.1375 C112.6094,888.9656 112.6563,888.7938 112.6563,888.3563 L112.6563,886.9969 C112.6563,886.575 112.6406,886.4344 112.5156,886.2625 C112.3438,886.0125 112.0625,885.8563 111.7344,885.8563 C111.4219,885.8563 111.2188,885.9656 111,886.2313 C109.8281,885.7313 109.3906,885.6219 108.4375,885.6219 C105.7656,885.6219 103.75,887.6375 103.75,890.2625 L103.75,891.3563 Z " fill="#000000"/><text fill="#000000" font-family="sans-serif" font-size="14" lengthAdjust="spacing" textLength="76" x="129.25" y="894.806">RobotVision</text><line style="stroke:#181818;stroke-width:0.5;" x1="23.5" x2="278.5" y1="906.2" y2="906.2"/><line style="stroke:#181818;stroke-width:0.5;" x1="23.5" x2="278.5" y1="914.2" y2="914.2"/><text fill="#000000" font-family="sans-serif" font-size="14" lengthAdjust="spacing" textLength="245" x="28.5" y="931.2059">+get_key_position(u, v, angles, height)</text></g><!--class TranslationUtils--><g id="elem_TranslationUtils"><rect codeLine="69" fill="#F1F1F1" height="92.5999" id="TranslationUtils" rx="2.5" ry="2.5" style="stroke:#181818;stroke-width:0.5;" width="154" x="314" y="860.3"/><ellipse cx="354.2" cy="881.8" fill="#ADD8E6" rx="11" ry="11" style="stroke:#181818;stroke-width:1.0;"/><path d="M358.2625,879.9563 C358.9188,879.9406 359.2938,879.6438 359.2938,879.0969 C359.2938,878.8 359.1688,878.55 358.9188,878.3781 C358.7313,878.2531 358.5906,878.2063 358.1063,878.2063 L355.9031,878.2063 C355.4344,878.2063 355.325,878.2219 355.1531,878.3313 C354.8719,878.5031 354.7156,878.7844 354.7156,879.0969 C354.7156,879.3625 354.8406,879.6438 355.075,879.8156 C355.2625,879.925 355.45,879.9563 355.9031,879.9563 L356.4188,879.9563 L356.4188,884.55 C356.4188,885.5031 355.4656,886.2688 354.2938,886.2688 C353.1219,886.2688 352.1688,885.5031 352.1688,884.55 L352.1688,879.9563 L352.7,879.9563 C353.1063,879.9563 353.2938,879.9406 353.45,879.8469 C353.7156,879.6906 353.8875,879.4094 353.8875,879.0969 C353.8875,878.8 353.7625,878.55 353.5125,878.3781 C353.325,878.2531 353.2,878.2063 352.7,878.2063 L350.4969,878.2063 C350.0594,878.2063 349.9031,878.2531 349.7469,878.3313 C349.4656,878.5031 349.3094,878.7844 349.3094,879.0969 C349.3094,879.6281 349.6688,879.9406 350.3406,879.9563 L350.3406,884.3938 C350.3406,886.4563 352.0594,888.0188 354.2938,888.0188 C356.5438,888.0188 358.2625,886.4563 358.2625,884.3938 L358.2625,879.9563 Z " fill="#000000"/><text fill="#000000" font-family="sans-serif" font-size="12" font-style="italic" lengthAdjust="spacing" textLength="44" x="384.8" y="878.5001">&#171;Utility&#187;</text><text fill="#000000" font-family="sans-serif" font-size="14" lengthAdjust="spacing" textLength="66" x="373.8" y="894.5061">translation</text><line style="stroke:#181818;stroke-width:0.5;" x1="315" x2="467" y1="903.3" y2="903.3"/><line style="stroke:#181818;stroke-width:0.5;" x1="315" x2="467" y1="911.3" y2="911.3"/><text fill="#000000" font-family="sans-serif" font-size="14" lengthAdjust="spacing" textLength="142" x="320" y="928.306">+rad_to_motor_units()</text><text fill="#000000" font-family="sans-serif" font-size="14" lengthAdjust="spacing" textLength="142" x="320" y="945.1059">+motor_units_to_rad()</text></g><!--class Robot--><g id="elem_Robot"><rect codeLine="79" fill="#F1F1F1" height="148.7996" id="Robot" rx="2.5" ry="2.5" style="stroke:#181818;stroke-width:0.5;" width="204" x="524" y="832.2"/><ellipse cx="602.75" cy="848.2" fill="#ADD1B2" rx="11" ry="11" style="stroke:#181818;stroke-width:1.0;"/><path d="M597.75,849.3563 C597.75,851.8563 599.8906,853.6688 602.8125,853.6688 C604.0469,853.6688 605.2188,853.3719 605.9688,852.8563 C606.5781,852.4344 606.9063,852.0125 606.9063,851.6063 C606.9063,851.1375 606.4844,850.7313 605.9844,850.7313 C605.75,850.7313 605.5313,850.8094 605.3281,851.0125 C604.8906,851.45 604.8906,851.45 604.7188,851.5438 C604.2656,851.7781 603.625,851.9188 602.8594,851.9188 C600.8594,851.9188 599.5781,850.9031 599.5781,849.325 L599.5781,848.2781 C599.5781,846.575 600.7969,845.3719 602.5,845.3719 C603.0781,845.3719 603.6563,845.5125 604.125,845.7625 C604.5938,846.0281 604.7656,846.2156 604.8281,846.575 C604.9531,847.2469 605.2031,847.4969 605.7344,847.4969 C606.0156,847.4969 606.2969,847.3563 606.4844,847.1375 C606.6094,846.9656 606.6563,846.7938 606.6563,846.3563 L606.6563,844.9969 C606.6563,844.575 606.6406,844.4344 606.5156,844.2625 C606.3438,844.0125 606.0625,843.8563 605.7344,843.8563 C605.4219,843.8563 605.2188,843.9656 605,844.2313 C603.8281,843.7313 603.3906,843.6219 602.4375,843.6219 C599.7656,843.6219 597.75,845.6375 597.75,848.2625 L597.75,849.3563 Z " fill="#000000"/><text fill="#000000" font-family="sans-serif" font-size="14" lengthAdjust="spacing" textLength="38" x="623.25" y="852.806">Robot</text><line style="stroke:#181818;stroke-width:0.5;" x1="525" x2="727" y1="864.2" y2="864.2"/><line style="stroke:#181818;stroke-width:0.5;" x1="525" x2="727" y1="872.2" y2="872.2"/><text fill="#000000" font-family="sans-serif" font-size="14" lengthAdjust="spacing" textLength="68" x="530" y="889.2059">+initialize()</text><text fill="#000000" font-family="sans-serif" font-size="14" lengthAdjust="spacing" textLength="128" x="530" y="906.0059">+enable_torque(ids)</text><text fill="#000000" font-family="sans-serif" font-size="14" lengthAdjust="spacing" textLength="109" x="530" y="922.8058">+move(positions)</text><text fill="#000000" font-family="sans-serif" font-size="14" lengthAdjust="spacing" textLength="175" x="530" y="939.6057">+read_current_position(ids)</text><text fill="#000000" font-family="sans-serif" font-size="14" lengthAdjust="spacing" textLength="192" x="530" y="956.4057">+set_move_speed(ids, speed)</text><text fill="#000000" font-family="sans-serif" font-size="14" lengthAdjust="spacing" textLength="51" x="530" y="973.2056">+close()</text></g><!--class RobotControls--><g id="elem_RobotControls"><rect codeLine="88" fill="#F1F1F1" height="115.1997" id="RobotControls" rx="2.5" ry="2.5" style="stroke:#181818;stroke-width:0.5;" width="183" x="534.5" y="1049.4"/><ellipse cx="576.5" cy="1065.4" fill="#ADD1B2" rx="11" ry="11" style="stroke:#181818;stroke-width:1.0;"/><path d="M571.5,1066.5563 C571.5,1069.0563 573.6406,1070.8688 576.5625,1070.8688 C577.7969,1070.8688 578.9688,1070.5719 579.7188,1070.0563 C580.3281,1069.6344 580.6563,1069.2125 580.6563,1068.8063 C580.6563,1068.3375 580.2344,1067.9313 579.7344,1067.9313 C579.5,1067.9313 579.2813,1068.0094 579.0781,1068.2125 C578.6406,1068.65 578.6406,1068.65 578.4688,1068.7438 C578.0156,1068.9781 577.375,1069.1188 576.6094,1069.1188 C574.6094,1069.1188 573.3281,1068.1031 573.3281,1066.525 L573.3281,1065.4781 C573.3281,1063.775 574.5469,1062.5719 576.25,1062.5719 C576.8281,1062.5719 577.4063,1062.7125 577.875,1062.9625 C578.3438,1063.2281 578.5156,1063.4156 578.5781,1063.775 C578.7031,1064.4469 578.9531,1064.6969 579.4844,1064.6969 C579.7656,1064.6969 580.0469,1064.5563 580.2344,1064.3375 C580.3594,1064.1656 580.4063,1063.9938 580.4063,1063.5563 L580.4063,1062.1969 C580.4063,1061.775 580.3906,1061.6344 580.2656,1061.4625 C580.0938,1061.2125 579.8125,1061.0563 579.4844,1061.0563 C579.1719,1061.0563 578.9688,1061.1656 578.75,1061.4313 C577.5781,1060.9313 577.1406,1060.8219 576.1875,1060.8219 C573.5156,1060.8219 571.5,1062.8375 571.5,1065.4625 L571.5,1066.5563 Z " fill="#000000"/><text fill="#000000" font-family="sans-serif" font-size="14" lengthAdjust="spacing" textLength="91" x="596.5" y="1070.006">RobotControls</text><line style="stroke:#181818;stroke-width:0.5;" x1="535.5" x2="716.5" y1="1081.4" y2="1081.4"/><line style="stroke:#181818;stroke-width:0.5;" x1="535.5" x2="716.5" y1="1089.4" y2="1089.4"/><text fill="#000000" font-family="sans-serif" font-size="14" lengthAdjust="spacing" textLength="85" x="540.5" y="1106.4059">+open_com()</text><text fill="#000000" font-family="sans-serif" font-size="14" lengthAdjust="spacing" textLength="171" x="540.5" y="1123.2059">+set_goal_position(id, pos)</text><text fill="#000000" font-family="sans-serif" font-size="14" lengthAdjust="spacing" textLength="168" x="540.5" y="1140.0058">+read_current_position(id)</text><text fill="#000000" font-family="sans-serif" font-size="14" lengthAdjust="spacing" textLength="86" x="540.5" y="1156.8057">+close_com()</text></g><!--reverse link RobotKinematicsController to Robot--><g id="link_RobotKinematicsController_Robot"><path codeLine="102" d="M377,769.54 C377,821.58 377,846 377,846 C377,846 454.97,846 523.64,846 " fill="none" id="RobotKinematicsController-backto-Robot" style="stroke:#181818;stroke-width:1.0;"/><polygon fill="none" points="377,757.54,373,763.54,377,769.54,381,763.54,377,757.54" style="stroke:#181818;stroke-width:1.0;"/><polygon fill="#000000" points="354.5235,840.1117,347.862,833.3239,345.1444,838.5358,354.5235,840.1117" style="stroke:#000000;stroke-width:1.0;"/><text fill="#000000" font-family="sans-serif" font-size="13" lengthAdjust="spacing" textLength="46" x="359.09" y="842.077">controls</text></g><!--reverse link RobotKinematicsController to RobotKinematics--><g id="link_RobotKinematicsController_RobotKinematics"><path codeLine="103" d="M296.75,769.45 C296.75,878.08 296.75,974.19 296.75,1040.78 " fill="none" id="RobotKinematicsController-backto-RobotKinematics" style="stroke:#181818;stroke-width:1.0;"/><polygon fill="#181818" points="296.75,757.45,292.75,763.45,296.75,769.45,300.75,763.45,296.75,757.45" style="stroke:#181818;stroke-width:1.0;"/><polygon fill="#000000" points="279.25,912.91,282.1889,903.8649,276.3111,903.8649,279.25,912.91" style="stroke:#000000;stroke-width:1.0;"/><text fill="#000000" font-family="sans-serif" font-size="13" lengthAdjust="spacing" textLength="30" x="288.25" y="912.187">owns</text></g><!--reverse link RobotKinematicsController to RobotVision--><g id="link_RobotKinematicsController_RobotVision"><path codeLine="104" d="M160.5,769.57 C160.5,817.16 160.5,846.79 160.5,873.87 " fill="none" id="RobotKinematicsController-backto-RobotVision" style="stroke:#181818;stroke-width:1.0;"/><polygon fill="#181818" points="160.5,757.57,156.5,763.57,160.5,769.57,164.5,763.57,160.5,757.57" style="stroke:#181818;stroke-width:1.0;"/><polygon fill="#000000" points="120.5,812.52,123.4389,803.4749,117.5611,803.4749,120.5,812.52" style="stroke:#000000;stroke-width:1.0;"/><text fill="#000000" font-family="sans-serif" font-size="13" lengthAdjust="spacing" textLength="30" x="129.5" y="811.797">owns</text></g><!--link RobotKinematicsController to TranslationUtils--><g id="link_RobotKinematicsController_TranslationUtils"><path codeLine="105" d="M345.5,757.57 C345.5,797.63 345.5,827.48 345.5,853.97 " fill="none" id="RobotKinematicsController-to-TranslationUtils" style="stroke:#181818;stroke-width:1.0;stroke-dasharray:7.0,7.0;"/><polygon fill="#181818" points="345.5,859.97,349.5,850.97,345.5,854.97,341.5,850.97,345.5,859.97" style="stroke:#181818;stroke-width:1.0;"/><polygon fill="#000000" points="307.5,805.57,310.4389,796.5249,304.5611,796.5249,307.5,805.57" style="stroke:#000000;stroke-width:1.0;"/><text fill="#000000" font-family="sans-serif" font-size="13" lengthAdjust="spacing" textLength="28" x="316.5" y="804.847">uses</text></g><!--link RobotVision to RobotKinematics--><g id="link_RobotVision_RobotKinematics"><path codeLine="108" d="M151.25,939.24 C151.25,966.64 151.25,1000.64 151.25,1034.72 " fill="none" id="RobotVision-to-RobotKinematics" style="stroke:#181818;stroke-width:1.0;stroke-dasharray:7.0,7.0;"/><polygon fill="#181818" points="151.25,1040.72,155.25,1031.72,151.25,1035.72,147.25,1031.72,151.25,1040.72" style="stroke:#181818;stroke-width:1.0;"/><polygon fill="#000000" points="113.25,986.78,116.1889,977.7349,110.3111,977.7349,113.25,986.78" style="stroke:#000000;stroke-width:1.0;"/><text fill="#000000" font-family="sans-serif" font-size="13" lengthAdjust="spacing" textLength="28" x="122.25" y="986.057">uses</text></g><!--reverse link Robot to RobotControls--><g id="link_Robot_RobotControls"><path codeLine="111" d="M626,993.22 C626,1015.59 626,1027.78 626,1048.91 " fill="none" id="Robot-backto-RobotControls" style="stroke:#181818;stroke-width:1.0;"/><polygon fill="#181818" points="626,981.22,622,987.22,626,993.22,630,987.22,626,981.22" style="stroke:#181818;stroke-width:1.0;"/><text fill="#000000" font-family="sans-serif" font-size="13" lengthAdjust="spacing" textLength="7" x="618.6664" y="1001.1527">1</text><text fill="#000000" font-family="sans-serif" font-size="13" lengthAdjust="spacing" textLength="7" x="618.5734" y="1038.0298">1</text></g><!--SRC=[fLPBSzis4BxhL-peqD0DxMdQcoRnZEgeiIPAt96KT7h2WEHQWWKID01QbZlvxrdm2KgontPvq0Fx_lRR1Sr6P3dNF8LOScF6rceH5HQdiSeMuW7Xju5fLQJ8qEvo1ANjMdc2dCSRliA5tKa4ZR7bsKhYOF06FZpx8UNP-D_97DwDu7BwwV9qDla-cS75rTVb_6escynVvgrE2OQNOhK-dU4TIhXGcTLA3k6_0T1JLWnp5IdxcIfBkHMngNKawbeBu1IqqnbLgkqXLJ_Qjsw5Ty88rSY_btzQMLneZPbbDqhGPmcL6H6unlO3ieWRP29ZMwLbCWAkDTzrNhWKaQQeAcEvyqG-4X5tFiXgOmW6t3jFLRmPGQIKh8_ghxV0A9YmZ0Lb-13kK4VAO5YQdFIr6OCfAGlAug5CWavQHwAHO73I7iQIV0M7RYwwGk0Nwf7IYSYuHUDxD6YP1qgkZ706mNq8kn0UkYXMyynSAvrMg36hAhkWnEYONkMMz4g3VRq6PcGjdbvDKl64UPq8heN4ZATuMEONTOSfjHrcQYLYlxQK91KPJE1pugIlGHckLUf7RuxtqGW1PQIshCWFTIjKNcBHw3AJAcNNdKbIL4M7K1Yi77VMU8ynxH56ED_GGb1w5zmoOxacNjqop9BE_j1eotTb6vZ1sm8pWhmvCI6SdPqTebkD62ovsVHuasiqXcrmnxXbkRX76HH4x13MI7l17gdsKPqks5-8IKJxnGzKv8aZIJFRLAdrMxKY_bBH3A-lIpGSga_AspurMZy6FrwvK7yVmUpgq_I2fklBU7dvoZrQqPPSSBj-SeEsU_Cjq7njkKxOfXK6joVUbg05GypnfCGFXmILxKsWIdD7YXiUgqZmp7VHo1pS8gR-QU8B1GbTw1XzV3Cif_Ys81OvrOwNDIjBJbhHpUuRHpK8YFDq6L22QqYHxht4D0tPnw0cOLD_tLP7ldRUAc9LyzqdMC_Ti5nFiXoF8N03o-x_DokaWVVl8VWMIcSVoG9Fm1qBkuFpyou1oa3pSWUcof6geBriMjPLj6_ForN9a_zDjp_e_XxFF_updazW_ETYEHzVBATNNrzxVHD_Y4C8uyWGA765o07zFD8TlNneAKSIQu848jbRha7J8EzSezljzJot3UoPkbkfN1mcfvNWP26KFu_VUeUCgTys_9bHEMQCU1tqmwmKbtuM8VI6vB5aznBfEQxvlVZu6RQQvpaDu-jxFv_CngxDYylftukN6PEszzOrnuhcPYroCtZyxKoTdjQj7z4Qg64yVyBWryR0MrKZKDlicMRrT3_3vEpi_71WH-wMT7PkKCfTUgJIEePpS9XgPzyEnH4NC7mtB9DstpsI3Nu2]--></g></svg>